<?xml version="1.0" encoding="utf-8" standalone="yes"?>
<!DOCTYPE svg PUBLIC "-//W3C//DTD SVG 1.1//EN" "http://www.w3.org/Graphics/SVG/1.1/DTD/svg11.dtd">
<svg width="888" height="852" viewBox="0 0 888 852" style="fill:none;stroke:none;fill-rule:evenodd;clip-rule:evenodd;stroke-linecap:round;stroke-linejoin:round;stroke-miterlimit:1.5;" version="1.1" xmlns="http://www.w3.org/2000/svg" xmlns:xlink="http://www.w3.org/1999/xlink"><style class="text-font-style fontImports" data-font-family="Arial"></style><g id="items" style="isolation: isolate"><g id="blend" style="mix-blend-mode: normal"><g id="g-root-cp_1_column-1_4mxznk5w7zez-fill" data-item-order="-635030" transform="translate(41, 167)"></g><g id="g-root-cp_3_column-3_1qclj9c5w80st-fill" data-item-order="-635014" transform="translate(221, 191.0001220703125)"></g><g id="g-root-cp_5_column-5_18lxzuo5w8007-fill" data-item-order="-634998" transform="translate(401, 167)"></g><g id="g-root-cp_7_column-7_vahhhc5w81l5-fill" data-item-order="-634982" transform="translate(581, 119)"></g><g id="g-root-cp_1_g-1_qvagg05w7z7n-fill" data-item-order="-634964" transform="translate(44, 362.0001220703125)"></g><g id="g-root-cp_2_g-2_djty2o5w80sl-fill" data-item-order="-634956" transform="translate(134, 362.0001220703125)"></g><g id="g-root-cp_3_g-3_8zwsg5w7z7r-fill" data-item-order="-634950" transform="translate(224, 362.0001220703125)"></g><g id="g-root-cp_4_g-4_1uuagn45w7zsx-fill" data-item-order="-634944" transform="translate(314, 362.0001220703125)"></g><g id="g-root-cp_5_g-5_1hity9s5w81dv-fill" data-item-order="-634938" transform="translate(404, 362.0001220703125)"></g><g id="g-root-cp_6_g-6_18ntf405w7z0t-fill" data-item-order="-634932" transform="translate(494, 362.0001220703125)"></g><g id="g-root-cp_7_g-7_147zwzk5w7zt3-fill" data-item-order="-634926" transform="translate(584, 362.0001220703125)"></g><g id="g-root-cp_8_g-8_zs6ev45w80ld-fill" data-item-order="-634920" transform="translate(674, 362.0001220703125)"></g><g id="g-root-cp_2_column-2_dbpv405vmxaj-fill" data-item-order="-634912" transform="translate(131, 443.0001220703125)"></g><g id="g-root-cp_4_column-4_9cqo5vmyvh-fill" data-item-order="-634896" transform="translate(311, 443.0001220703125)"></g><g id="g-root-cp_6_column-6_1lqjdfk5vmx3j-fill" data-item-order="-634880" transform="translate(491, 443.0001220703125)"></g><g id="g-root-cp_8_column-8_1hapvb45vmxvt-fill" data-item-order="-634864" transform="translate(671, 443.0001220703125)"></g><g id="g-root-tx_platform_1d1rl4w5vmx37-fill" data-item-order="0" transform="translate(596, 302.0001220703125)"><g id="tx_platform_1d1rl4w5vmx37-fill" stroke="none" fill="#484848"><g><text style="font: 15px &quot;Arial&quot;, Helvetica, sans-serif; white-space: pre;" font-size="15px" font-family="'Arial', Helvetica, sans-serif"><tspan x="12" y="27.25" dominant-baseline="ideographic">Platform receiving </tspan><tspan x="12" y="45.25" dominant-baseline="ideographic">MQTT message</tspan></text></g></g></g><g id="g-root-tx_datatran_zp24lc5vmwi1-fill" data-item-order="0" transform="translate(416, 302.0001220703125)"><g id="tx_datatran_zp24lc5vmwi1-fill" stroke="none" fill="#484848"><g><text style="font: 15px &quot;Arial&quot;, Helvetica, sans-serif; white-space: pre;" font-size="15px" font-family="'Arial', Helvetica, sans-serif"><tspan x="12" y="27.25" dominant-baseline="ideographic">Data translation to </tspan><tspan x="12" y="45.25" dominant-baseline="ideographic">JSON</tspan></text></g></g></g><g id="g-root-tx_coordina_v7d77k5vmy9z-fill" data-item-order="0" transform="translate(236, 302.0001220703125)"><g id="tx_coordina_v7d77k5vmy9z-fill" stroke="none" fill="#484848"><g><text style="font: 15px &quot;Arial&quot;, Helvetica, sans-serif; white-space: pre;" font-size="15px" font-family="'Arial', Helvetica, sans-serif"><tspan x="12" y="27.25" dominant-baseline="ideographic">Coordinator </tspan><tspan x="12" y="45.25" dominant-baseline="ideographic">receiving data</tspan></text></g></g></g><g id="g-root-tx_mqttmess_24s005voc1t-fill" data-item-order="0" transform="translate(506, 734.0001220703125)"><g id="tx_mqttmess_24s005voc1t-fill" stroke="none" fill="#484848"><g><text style="font: 15px &quot;Arial&quot;, Helvetica, sans-serif; white-space: pre;" font-size="15px" font-family="'Arial', Helvetica, sans-serif"><tspan x="12" y="27.25" dominant-baseline="ideographic">MQTT message </tspan><tspan x="12" y="45.25" dominant-baseline="ideographic">publication</tspan></text></g></g></g><g id="g-root-tx_cc2531co_1ltnqv45vmy9y-fill" data-item-order="0" transform="translate(236, 194.0001220703125)"><g id="tx_cc2531co_1ltnqv45vmy9y-fill" stroke="none" fill="#484848"><g><text style="font: bold 20px &quot;Arial&quot;, Helvetica, sans-serif; white-space: pre;" font-weight="bold" font-size="20px" font-family="'Arial', Helvetica, sans-serif"><tspan x="12" y="33" dominant-baseline="ideographic">CC2531 </tspan><tspan x="12" y="57" dominant-baseline="ideographic">Coordinator </tspan><tspan x="12" y="81" dominant-baseline="ideographic">receives </tspan><tspan x="12" y="105" dominant-baseline="ideographic">ZigBee packet</tspan></text></g></g></g><g id="g-root-tx_zigbee2m_1qbco8w5vmwi0-fill" data-item-order="0" transform="translate(416, 170.0001220703125)"><g id="tx_zigbee2m_1qbco8w5vmwi0-fill" stroke="none" fill="#484848"><g><text style="font: bold 20px &quot;Arial&quot;, Helvetica, sans-serif; white-space: pre;" font-weight="bold" font-size="20px" font-family="'Arial', Helvetica, sans-serif"><tspan x="12" y="33" dominant-baseline="ideographic">Zigbee2MQTT </tspan><tspan x="12" y="57" dominant-baseline="ideographic">translates </tspan><tspan x="12" y="81" dominant-baseline="ideographic">data to JSON </tspan><tspan x="12" y="105" dominant-baseline="ideographic">MQTT </tspan><tspan x="12" y="129" dominant-baseline="ideographic">message</tspan></text></g></g></g><g id="g-root-tx_sensorse_dju18g5vmxvw-fill" data-item-order="0" transform="translate(146, 458.0001220703125)"><g id="tx_sensorse_dju18g5vmxvw-fill" stroke="none" fill="#484848"><g><text style="font: bold 20px &quot;Arial&quot;, Helvetica, sans-serif; white-space: pre;" font-weight="bold" font-size="20px" font-family="'Arial', Helvetica, sans-serif"><tspan x="12" y="33" dominant-baseline="ideographic">Sensor sends </tspan><tspan x="12" y="57" dominant-baseline="ideographic">ZigBee data </tspan><tspan x="12" y="81" dominant-baseline="ideographic">packet</tspan></text></g></g></g><g id="g-root-tx_sensorde_1lrsbls5vmz9o-fill" data-item-order="0" transform="translate(56, 170.0001220703125)"><g id="tx_sensorde_1lrsbls5vmz9o-fill" stroke="none" fill="#484848"><g><text style="font: bold 20px &quot;Arial&quot;, Helvetica, sans-serif; white-space: pre;" font-weight="bold" font-size="20px" font-family="'Arial', Helvetica, sans-serif"><tspan x="12" y="33" dominant-baseline="ideographic">Sensor </tspan><tspan x="12" y="57" dominant-baseline="ideographic">detects </tspan><tspan x="12" y="81" dominant-baseline="ideographic">change (e.g., </tspan><tspan x="12" y="105" dominant-baseline="ideographic">temperature </tspan><tspan x="12" y="129" dominant-baseline="ideographic">rises)</tspan></text></g></g></g><g id="g-root-tx_zigbee2m_qwjhs05vmyh2-fill" data-item-order="0" transform="translate(326, 458.0001220703125)"><g id="tx_zigbee2m_qwjhs05vmyh2-fill" stroke="none" fill="#484848"><g><text style="font: bold 20px &quot;Arial&quot;, Helvetica, sans-serif; white-space: pre;" font-weight="bold" font-size="20px" font-family="'Arial', Helvetica, sans-serif"><tspan x="12" y="33" dominant-baseline="ideographic">Zigbee2MQTT </tspan><tspan x="12" y="57" dominant-baseline="ideographic">reads data </tspan><tspan x="12" y="81" dominant-baseline="ideographic">from CC2531</tspan></text></g></g></g><g id="g-root-tx_smarthom_4my2tc5vmxaa-fill" data-item-order="0" transform="translate(596, 122.0001220703125)"><g id="tx_smarthom_4my2tc5vmxaa-fill" stroke="none" fill="#484848"><g><text style="font: bold 20px &quot;Arial&quot;, Helvetica, sans-serif; white-space: pre;" font-weight="bold" font-size="20px" font-family="'Arial', Helvetica, sans-serif"><tspan x="12" y="33" dominant-baseline="ideographic">Smart Home </tspan><tspan x="12" y="57" dominant-baseline="ideographic">Platform </tspan><tspan x="12" y="81" dominant-baseline="ideographic">(subscribed to </tspan><tspan x="12" y="105" dominant-baseline="ideographic">Topic) </tspan><tspan x="12" y="129" dominant-baseline="ideographic">receives </tspan><tspan x="12" y="153" dominant-baseline="ideographic">MQTT </tspan><tspan x="12" y="177" dominant-baseline="ideographic">message</tspan></text></g></g></g><g id="g-root-tx_zigbee2m_v48ts05vob9k-fill" data-item-order="0" transform="translate(506, 458.0001220703125)"><g id="tx_zigbee2m_v48ts05vob9k-fill" stroke="none" fill="#484848"><g><text style="font: bold 20px &quot;Arial&quot;, Helvetica, sans-serif; white-space: pre;" font-weight="bold" font-size="20px" font-family="'Arial', Helvetica, sans-serif"><tspan x="12" y="33" dominant-baseline="ideographic">Zigbee2MQTT </tspan><tspan x="12" y="57" dominant-baseline="ideographic">publishes </tspan><tspan x="12" y="81" dominant-baseline="ideographic">MQTT </tspan><tspan x="12" y="105" dominant-baseline="ideographic">message to a </tspan><tspan x="12" y="129" dominant-baseline="ideographic">specific Topic </tspan><tspan x="12" y="153" dominant-baseline="ideographic">(e.g., </tspan><tspan x="12" y="177" dominant-baseline="ideographic">"zigbee2mqtt/</tspan><tspan x="12" y="201" dominant-baseline="ideographic">temp_sensor/</tspan><tspan x="12" y="225" dominant-baseline="ideographic">state") on </tspan><tspan x="12" y="249" dominant-baseline="ideographic">Mosquitto </tspan><tspan x="12" y="273" dominant-baseline="ideographic">Broker</tspan></text></g></g></g><g id="g-root-tx_zigbeeme_zk2bwg5vmx37-fill" data-item-order="0" transform="translate(182, 38)"><g id="tx_zigbeeme_zk2bwg5vmx37-fill" stroke="none" fill="#484848"><g><text style="font: bold 25px &quot;Arial&quot;, Helvetica, sans-serif; white-space: pre;" font-weight="bold" font-size="25px" font-family="'Arial', Helvetica, sans-serif"><tspan x="15.65" y="42" dominant-baseline="ideographic">ZigBee Mesh Network Data Flow Timeline</tspan></text></g></g></g><g id="g-root-tx_smarthom_18gyabk5vobuq-fill" data-item-order="0" transform="translate(686, 458.0001220703125)"><g id="tx_smarthom_18gyabk5vobuq-fill" stroke="none" fill="#484848"><g><text style="font: bold 20px &quot;Arial&quot;, Helvetica, sans-serif; white-space: pre;" font-weight="bold" font-size="20px" font-family="'Arial', Helvetica, sans-serif"><tspan x="12" y="33" dominant-baseline="ideographic">Smart Home </tspan><tspan x="12" y="57" dominant-baseline="ideographic">Platform </tspan><tspan x="12" y="81" dominant-baseline="ideographic">updates UI / </tspan><tspan x="12" y="105" dominant-baseline="ideographic">triggers </tspan><tspan x="12" y="129" dominant-baseline="ideographic">automation</tspan></text></g></g></g><g id="g-root-tx_datapack_1lynjk05vmxot-fill" data-item-order="0" transform="translate(146, 542.0001220703125)"><g id="tx_datapack_1lynjk05vmxot-fill" stroke="none" fill="#484848"><g><text style="font: 15px &quot;Arial&quot;, Helvetica, sans-serif; white-space: pre;" font-size="15px" font-family="'Arial', Helvetica, sans-serif"><tspan x="12" y="27.25" dominant-baseline="ideographic">Data packet </tspan><tspan x="12" y="45.25" dominant-baseline="ideographic">transmission</tspan></text></g></g></g><g id="g-root-tx_dataread_1q5qegw5vodn3-fill" data-item-order="0" transform="translate(326, 542.0001220703125)"><g id="tx_dataread_1q5qegw5vodn3-fill" stroke="none" fill="#484848"><g><text style="font: 15px &quot;Arial&quot;, Helvetica, sans-serif; white-space: pre;" font-size="15px" font-family="'Arial', Helvetica, sans-serif"><tspan x="12" y="27.25" dominant-baseline="ideographic">Data reading by </tspan><tspan x="12" y="45.25" dominant-baseline="ideographic">Zigbee2MQTT</tspan></text></g></g></g><g id="g-root-tx_uiupdate_hunqo05vobur-fill" data-item-order="0" transform="translate(686, 590.0001220703125)"><g id="tx_uiupdate_hunqo05vobur-fill" stroke="none" fill="#484848"><g><text style="font: 15px &quot;Arial&quot;, Helvetica, sans-serif; white-space: pre;" font-size="15px" font-family="'Arial', Helvetica, sans-serif"><tspan x="12" y="27.25" dominant-baseline="ideographic">UI update and </tspan><tspan x="12" y="45.25" dominant-baseline="ideographic">automation</tspan></text></g></g></g><g id="g-root-tx_sensorde_qqaqww5vmww5-fill" data-item-order="0" transform="translate(56, 302.0001220703125)"><g id="tx_sensorde_qqaqww5vmww5-fill" stroke="none" fill="#484848"><g><text style="font: 15px &quot;Arial&quot;, Helvetica, sans-serif; white-space: pre;" font-size="15px" font-family="'Arial', Helvetica, sans-serif"><tspan x="12" y="27.25" dominant-baseline="ideographic">Sensor detecting </tspan><tspan x="12" y="45.25" dominant-baseline="ideographic">change</tspan></text></g></g></g><g id="g-root-cp_1_column-1_4mxznk5w7zez-stroke" data-item-order="-635030" transform="translate(41, 167)"><g id="cp_1_column-1_4mxznk5w7zez-stroke" fill="none" stroke-linecap="butt" stroke-linejoin="miter" stroke-miterlimit="4" stroke="#484848" stroke-width="1"><g><path d="M 10 13C 10 14.656854 11.343146 16 13 16C 14.656854 16 16 14.656854 16 13C 16 11.343146 14.656854 10 13 10C 11.343146 10 10 11.343146 10 13"></path></g></g><g id="cp_1_column-1_4mxznk5w7zez-stroke" fill="none" stroke-linecap="butt" stroke-linejoin="miter" stroke-miterlimit="4" stroke="#484848" stroke-width="1"><g><path d="M 12.999999 16L 12.999999 190"></path></g></g><g id="cp_1_column-1_4mxznk5w7zez-stroke" fill="none" stroke-linecap="butt" stroke-linejoin="miter" stroke-miterlimit="4" stroke="#484848" stroke-width="1"><g><path d="M 10 193C 10 194.656854 11.343146 196 13 196C 14.656854 196 16 194.656854 16 193C 16 191.343146 14.656854 190 13 190C 11.343146 190 10 191.343146 10 193"></path></g></g></g><g id="g-root-cp_3_column-3_1qclj9c5w80st-stroke" data-item-order="-635014" transform="translate(221, 191.0001220703125)"><g id="cp_3_column-3_1qclj9c5w80st-stroke" fill="none" stroke-linecap="butt" stroke-linejoin="miter" stroke-miterlimit="4" stroke="#484848" stroke-width="1"><g><path d="M 10 13C 10 14.656854 11.343146 16 13 16C 14.656854 16 16 14.656854 16 13C 16 11.343146 14.656854 10 13 10C 11.343146 10 10 11.343146 10 13"></path></g></g><g id="cp_3_column-3_1qclj9c5w80st-stroke" fill="none" stroke-linecap="butt" stroke-linejoin="miter" stroke-miterlimit="4" stroke="#484848" stroke-width="1"><g><path d="M 13 16L 13 166"></path></g></g><g id="cp_3_column-3_1qclj9c5w80st-stroke" fill="none" stroke-linecap="butt" stroke-linejoin="miter" stroke-miterlimit="4" stroke="#484848" stroke-width="1"><g><path d="M 10 169C 10 170.656854 11.343146 172 13 172C 14.656854 172 16 170.656854 16 169C 16 167.343146 14.656854 166 13 166C 11.343146 166 10 167.343146 10 169"></path></g></g></g><g id="g-root-cp_5_column-5_18lxzuo5w8007-stroke" data-item-order="-634998" transform="translate(401, 167)"><g id="cp_5_column-5_18lxzuo5w8007-stroke" fill="none" stroke-linecap="butt" stroke-linejoin="miter" stroke-miterlimit="4" stroke="#484848" stroke-width="1"><g><path d="M 10 13C 10 14.656854 11.343146 16 13 16C 14.656854 16 16 14.656854 16 13C 16 11.343146 14.656854 10 13 10C 11.343146 10 10 11.343146 10 13"></path></g></g><g id="cp_5_column-5_18lxzuo5w8007-stroke" fill="none" stroke-linecap="butt" stroke-linejoin="miter" stroke-miterlimit="4" stroke="#484848" stroke-width="1"><g><path d="M 12.999999 16L 12.999999 190"></path></g></g><g id="cp_5_column-5_18lxzuo5w8007-stroke" fill="none" stroke-linecap="butt" stroke-linejoin="miter" stroke-miterlimit="4" stroke="#484848" stroke-width="1"><g><path d="M 10 193C 10 194.656854 11.343146 196 13 196C 14.656854 196 16 194.656854 16 193C 16 191.343146 14.656854 190 13 190C 11.343146 190 10 191.343146 10 193"></path></g></g></g><g id="g-root-cp_7_column-7_vahhhc5w81l5-stroke" data-item-order="-634982" transform="translate(581, 119)"><g id="cp_7_column-7_vahhhc5w81l5-stroke" fill="none" stroke-linecap="butt" stroke-linejoin="miter" stroke-miterlimit="4" stroke="#484848" stroke-width="1"><g><path d="M 10 13C 10 14.656854 11.343146 16 13 16C 14.656854 16 16 14.656854 16 13C 16 11.343146 14.656854 10 13 10C 11.343146 10 10 11.343146 10 13"></path></g></g><g id="cp_7_column-7_vahhhc5w81l5-stroke" fill="none" stroke-linecap="butt" stroke-linejoin="miter" stroke-miterlimit="4" stroke="#484848" stroke-width="1"><g><path d="M 13.000001 16L 13.000001 238"></path></g></g><g id="cp_7_column-7_vahhhc5w81l5-stroke" fill="none" stroke-linecap="butt" stroke-linejoin="miter" stroke-miterlimit="4" stroke="#484848" stroke-width="1"><g><path d="M 10 241C 10 242.656854 11.343146 244 13 244C 14.656854 244 16 242.656854 16 241C 16 239.343146 14.656854 238 13 238C 11.343146 238 10 239.343146 10 241"></path></g></g></g><g id="g-root-cp_1_g-1_qvagg05w7z7n-stroke" data-item-order="-634964" transform="translate(44, 362.0001220703125)"><g id="cp_1_g-1_qvagg05w7z7n-stroke" fill="none" stroke-linecap="butt" stroke-linejoin="miter" stroke-miterlimit="4" stroke="#484848" stroke-width="1"><g><path d="M 76 10L 10 10L 28 46L 10 82L 76 82L 94 46L 76 10Z"></path></g></g></g><g id="g-root-cp_2_g-2_djty2o5w80sl-stroke" data-item-order="-634956" transform="translate(134, 362.0001220703125)"><g id="cp_2_g-2_djty2o5w80sl-stroke" fill="none" stroke-linecap="butt" stroke-linejoin="miter" stroke-miterlimit="4" stroke="#484848" stroke-width="1"><g><path d="M 76 10L 10 10L 28 46L 10 82L 76 82L 94 46L 76 10Z"></path></g></g></g><g id="g-root-cp_3_g-3_8zwsg5w7z7r-stroke" data-item-order="-634950" transform="translate(224, 362.0001220703125)"><g id="cp_3_g-3_8zwsg5w7z7r-stroke" fill="none" stroke-linecap="butt" stroke-linejoin="miter" stroke-miterlimit="4" stroke="#484848" stroke-width="1"><g><path d="M 76 10L 10 10L 28 46L 10 82L 76 82L 94 46L 76 10Z"></path></g></g></g><g id="g-root-cp_4_g-4_1uuagn45w7zsx-stroke" data-item-order="-634944" transform="translate(314, 362.0001220703125)"><g id="cp_4_g-4_1uuagn45w7zsx-stroke" fill="none" stroke-linecap="butt" stroke-linejoin="miter" stroke-miterlimit="4" stroke="#484848" stroke-width="1"><g><path d="M 76 10L 10 10L 28 46L 10 82L 76 82L 94 46L 76 10Z"></path></g></g></g><g id="g-root-cp_5_g-5_1hity9s5w81dv-stroke" data-item-order="-634938" transform="translate(404, 362.0001220703125)"><g id="cp_5_g-5_1hity9s5w81dv-stroke" fill="none" stroke-linecap="butt" stroke-linejoin="miter" stroke-miterlimit="4" stroke="#484848" stroke-width="1"><g><path d="M 76 10L 10 10L 28 46L 10 82L 76 82L 94 46L 76 10Z"></path></g></g></g><g id="g-root-cp_6_g-6_18ntf405w7z0t-stroke" data-item-order="-634932" transform="translate(494, 362.0001220703125)"><g id="cp_6_g-6_18ntf405w7z0t-stroke" fill="none" stroke-linecap="butt" stroke-linejoin="miter" stroke-miterlimit="4" stroke="#484848" stroke-width="1"><g><path d="M 76 10L 10 10L 28 46L 10 82L 76 82L 94 46L 76 10Z"></path></g></g></g><g id="g-root-cp_7_g-7_147zwzk5w7zt3-stroke" data-item-order="-634926" transform="translate(584, 362.0001220703125)"><g id="cp_7_g-7_147zwzk5w7zt3-stroke" fill="none" stroke-linecap="butt" stroke-linejoin="miter" stroke-miterlimit="4" stroke="#484848" stroke-width="1"><g><path d="M 76 10L 10 10L 28 46L 10 82L 76 82L 94 46L 76 10Z"></path></g></g></g><g id="g-root-cp_8_g-8_zs6ev45w80ld-stroke" data-item-order="-634920" transform="translate(674, 362.0001220703125)"><g id="cp_8_g-8_zs6ev45w80ld-stroke" fill="none" stroke-linecap="butt" stroke-linejoin="miter" stroke-miterlimit="4" stroke="#484848" stroke-width="1"><g><path d="M 76 10L 10 10L 28 46L 10 82L 76 82L 94 46L 76 10Z"></path></g></g></g><g id="g-root-cp_2_column-2_dbpv405vmxaj-stroke" data-item-order="-634912" transform="translate(131, 443.0001220703125)"><g id="cp_2_column-2_dbpv405vmxaj-stroke" fill="none" stroke-linecap="butt" stroke-linejoin="miter" stroke-miterlimit="4" stroke="#484848" stroke-width="1"><g><path d="M 10 13C 10 14.656854 11.343146 16 13 16C 14.656854 16 16 14.656854 16 13C 16 11.343146 14.656854 10 13 10C 11.343146 10 10 11.343146 10 13"></path></g></g><g id="cp_2_column-2_dbpv405vmxaj-stroke" fill="none" stroke-linecap="butt" stroke-linejoin="miter" stroke-miterlimit="4" stroke="#484848" stroke-width="1"><g><path d="M 13 16L 13 142"></path></g></g><g id="cp_2_column-2_dbpv405vmxaj-stroke" fill="none" stroke-linecap="butt" stroke-linejoin="miter" stroke-miterlimit="4" stroke="#484848" stroke-width="1"><g><path d="M 10 145C 10 146.656854 11.343146 148 13 148C 14.656854 148 16 146.656854 16 145C 16 143.343146 14.656854 142 13 142C 11.343146 142 10 143.343146 10 145"></path></g></g></g><g id="g-root-cp_4_column-4_9cqo5vmyvh-stroke" data-item-order="-634896" transform="translate(311, 443.0001220703125)"><g id="cp_4_column-4_9cqo5vmyvh-stroke" fill="none" stroke-linecap="butt" stroke-linejoin="miter" stroke-miterlimit="4" stroke="#484848" stroke-width="1"><g><path d="M 10 13C 10 14.656854 11.343146 16 13 16C 14.656854 16 16 14.656854 16 13C 16 11.343146 14.656854 10 13 10C 11.343146 10 10 11.343146 10 13"></path></g></g><g id="cp_4_column-4_9cqo5vmyvh-stroke" fill="none" stroke-linecap="butt" stroke-linejoin="miter" stroke-miterlimit="4" stroke="#484848" stroke-width="1"><g><path d="M 13 16L 13 142"></path></g></g><g id="cp_4_column-4_9cqo5vmyvh-stroke" fill="none" stroke-linecap="butt" stroke-linejoin="miter" stroke-miterlimit="4" stroke="#484848" stroke-width="1"><g><path d="M 10 145C 10 146.656854 11.343146 148 13 148C 14.656854 148 16 146.656854 16 145C 16 143.343146 14.656854 142 13 142C 11.343146 142 10 143.343146 10 145"></path></g></g></g><g id="g-root-cp_6_column-6_1lqjdfk5vmx3j-stroke" data-item-order="-634880" transform="translate(491, 443.0001220703125)"><g id="cp_6_column-6_1lqjdfk5vmx3j-stroke" fill="none" stroke-linecap="butt" stroke-linejoin="miter" stroke-miterlimit="4" stroke="#484848" stroke-width="1"><g><path d="M 10 13C 10 14.656854 11.343146 16 13 16C 14.656854 16 16 14.656854 16 13C 16 11.343146 14.656854 10 13 10C 11.343146 10 10 11.343146 10 13"></path></g></g><g id="cp_6_column-6_1lqjdfk5vmx3j-stroke" fill="none" stroke-linecap="butt" stroke-linejoin="miter" stroke-miterlimit="4" stroke="#484848" stroke-width="1"><g><path d="M 12.999996 15.999998L 12.999996 334"></path></g></g><g id="cp_6_column-6_1lqjdfk5vmx3j-stroke" fill="none" stroke-linecap="butt" stroke-linejoin="miter" stroke-miterlimit="4" stroke="#484848" stroke-width="1"><g><path d="M 10 337C 10 338.656854 11.343146 340 13 340C 14.656854 340 16 338.656854 16 337C 16 335.343146 14.656854 334 13 334C 11.343146 334 10 335.343146 10 337"></path></g></g></g><g id="g-root-cp_8_column-8_1hapvb45vmxvt-stroke" data-item-order="-634864" transform="translate(671, 443.0001220703125)"><g id="cp_8_column-8_1hapvb45vmxvt-stroke" fill="none" stroke-linecap="butt" stroke-linejoin="miter" stroke-miterlimit="4" stroke="#484848" stroke-width="1"><g><path d="M 10 13C 10 14.656854 11.343146 16 13 16C 14.656854 16 16 14.656854 16 13C 16 11.343146 14.656854 10 13 10C 11.343146 10 10 11.343146 10 13"></path></g></g><g id="cp_8_column-8_1hapvb45vmxvt-stroke" fill="none" stroke-linecap="butt" stroke-linejoin="miter" stroke-miterlimit="4" stroke="#484848" stroke-width="1"><g><path d="M 12.999999 15.999999L 12.999999 190"></path></g></g><g id="cp_8_column-8_1hapvb45vmxvt-stroke" fill="none" stroke-linecap="butt" stroke-linejoin="miter" stroke-miterlimit="4" stroke="#484848" stroke-width="1"><g><path d="M 10 193C 10 194.656854 11.343146 196 13 196C 14.656854 196 16 194.656854 16 193C 16 191.343146 14.656854 190 13 190C 11.343146 190 10 191.343146 10 193"></path></g></g></g><g id="g-root-tx_platform_1d1rl4w5vmx37-stroke" data-item-order="0" transform="translate(596, 302.0001220703125)"></g><g id="g-root-tx_datatran_zp24lc5vmwi1-stroke" data-item-order="0" transform="translate(416, 302.0001220703125)"></g><g id="g-root-tx_coordina_v7d77k5vmy9z-stroke" data-item-order="0" transform="translate(236, 302.0001220703125)"></g><g id="g-root-tx_mqttmess_24s005voc1t-stroke" data-item-order="0" transform="translate(506, 734.0001220703125)"></g><g id="g-root-tx_cc2531co_1ltnqv45vmy9y-stroke" data-item-order="0" transform="translate(236, 194.0001220703125)"></g><g id="g-root-tx_zigbee2m_1qbco8w5vmwi0-stroke" data-item-order="0" transform="translate(416, 170.0001220703125)"></g><g id="g-root-tx_sensorse_dju18g5vmxvw-stroke" data-item-order="0" transform="translate(146, 458.0001220703125)"></g><g id="g-root-tx_sensorde_1lrsbls5vmz9o-stroke" data-item-order="0" transform="translate(56, 170.0001220703125)"></g><g id="g-root-tx_zigbee2m_qwjhs05vmyh2-stroke" data-item-order="0" transform="translate(326, 458.0001220703125)"></g><g id="g-root-tx_smarthom_4my2tc5vmxaa-stroke" data-item-order="0" transform="translate(596, 122.0001220703125)"></g><g id="g-root-tx_zigbee2m_v48ts05vob9k-stroke" data-item-order="0" transform="translate(506, 458.0001220703125)"></g><g id="g-root-tx_zigbeeme_zk2bwg5vmx37-stroke" data-item-order="0" transform="translate(182, 38)"></g><g id="g-root-tx_smarthom_18gyabk5vobuq-stroke" data-item-order="0" transform="translate(686, 458.0001220703125)"></g><g id="g-root-tx_datapack_1lynjk05vmxot-stroke" data-item-order="0" transform="translate(146, 542.0001220703125)"></g><g id="g-root-tx_dataread_1q5qegw5vodn3-stroke" data-item-order="0" transform="translate(326, 542.0001220703125)"></g><g id="g-root-tx_uiupdate_hunqo05vobur-stroke" data-item-order="0" transform="translate(686, 590.0001220703125)"></g><g id="g-root-tx_sensorde_qqaqww5vmww5-stroke" data-item-order="0" transform="translate(56, 302.0001220703125)"></g></g></g><path id="w1usfav46g2yv5" d="M65.283 12.757a.35.35 0 0 0 .584.157l5.203-5.141-6.183 3.523.396 1.461zm-2.216-11.7a.35.35 0 0 0-.522.305v3.111l3.276-1.868-2.754-1.548zm3.728 2.105l-4.25 2.421v2.445l6.391-3.644-2.141-1.222zm4.708 3.303a.35.35 0 0 0 0-.609l-1.592-.9-7.365 4.199v1.782a.35.35 0 0 0 .523.305l8.435-4.777z M44.542 2.513c0-.433.355-.783.792-.783s.792.35.792.783-.355.783-.792.783-.792-.35-.792-.783zm59.171 0c0-.433.355-.783.792-.783s.792.35.792.783-.355.783-.792.783-.792-.35-.792-.783zm-85.951 7.636h-1.27v-.487c-.276.201-.864.609-1.881.609-1.202 0-2.274-.794-2.137-2.078.118-1.106 1.153-1.584 1.848-1.727l2.17-.345c0-.539-.29-.956-1.064-1.006s-1.21.305-1.571 1.017l-1.124-.605c1.218-2.631 5.029-1.764 5.029.414v4.207zm-1.27-2.86c.006.396-.062 1.112-.819 1.59-.587.37-1.841.299-1.903-.395-.049-.555.461-.791.906-.898l1.816-.297zm72.662 2.86h-1.27v-.487c-.276.201-.864.609-1.881.609-1.202 0-2.274-.794-2.137-2.078.118-1.106 1.153-1.584 1.848-1.727l2.17-.345c0-.539-.29-.956-1.064-1.006s-1.21.305-1.571 1.017l-1.124-.605c1.218-2.631 5.029-1.764 5.029.414v4.207zm-1.27-2.86c.006.396-.062 1.112-.82 1.59-.587.37-1.841.299-1.903-.395-.049-.555.461-.791.906-.898l1.816-.297zM99.096 10.149H97.85v-8.45h1.246v4.895l2.68-2.559h1.738l-2.633 2.535 2.715 3.578h-1.556l-2.077-2.707-.867.844v1.863zm6.053-6.114h-1.255v6.113h1.255V4.035zm-59.2 0h-1.255v6.113h1.255V4.035zm5.584 6.113V1.697h1.255v2.695c.361-.346 1-.485 1.47-.485 1.452 0 2.477 1.082 2.457 2.448v3.792h-1.27v-3.68c0-.408-.214-1.339-1.315-1.339-.968 0-1.342.756-1.342 1.339v3.681h-1.255zm-4.76-4.894V4.039h.621a.45.45 0 0 0 .45-.45v-.855h1.251v1.305h1.309v1.215h-1.309v3.109c0 .293.105.664.648.664.365 0 .531-.035.736-.07v1.137s-.361.113-.857.113c-1.398 0-1.777-1.051-1.777-1.788V5.254h-1.071zM36.528 4.039h-1.394l2.191 6.106h1.125l1.234-3.918 1.238 3.918h1.129l2.188-6.106h-1.383l-1.359 3.93-1.256-3.93h-1.124l-1.242 3.957-1.348-3.957zM26.212 7.141c-.02 1.566 1.187 3.129 3.223 3.129 1.566 0 2.383-.918 2.734-1.719L31.172 8c-.315.399-.801 1.094-1.738 1.094-1.145 0-1.825-.781-1.891-1.52h4.625c.074-.284.148-.995-.03-1.559-.336-1.064-1.221-2.102-2.839-2.102s-3.088 1.152-3.088 3.227zm1.363-.75h3.348c-.055-.43-.566-1.301-1.623-1.301a1.79 1.79 0 0 0-1.725 1.301zm-8.758.75c.038 1.758 1.277 3.133 3.145 3.133 1.074 0 1.723-.477 1.961-.672v.547h1.242V1.703h-1.258v2.888c-.414-.36-1.062-.68-1.93-.68-1.91 0-3.198 1.473-3.16 3.23zm1.309-.08c0 1.119.723 1.978 1.836 1.978a1.88 1.88 0 0 0 1.94-1.904c0-1.371-1.011-1.99-1.972-1.99s-1.805.798-1.805 1.916zm76.683-.028C96.771 5.275 95.532 3.9 93.664 3.9c-1.074 0-1.723.477-1.961.672v-.547h-1.242v8.22h1.258V9.583c.414.36 1.063.68 1.93.68 1.91 0 3.198-1.473 3.16-3.23zm-1.309.08c0-1.119-.723-1.978-1.836-1.978a1.88 1.88 0 0 0-1.94 1.904c0 1.371 1.011 1.99 1.972 1.99S95.5 8.231 95.5 7.113zM106.441 10.173V4.036h1.254v.382c.361-.346 1-.485 1.47-.485 1.452 0 2.477 1.082 2.457 2.448v3.792h-1.27V6.492c0-.408-.214-1.339-1.315-1.339-.969 0-1.342.756-1.342 1.339v3.681h-1.254zm-30.383-.021V1.824h1.084l4.215 5.777V1.824h1.32v8.328h-1.094l-4.207-5.796v5.796h-1.319zM5.24 10.149H4V2.377h1.014l2.664 3.597 2.654-3.592h1.03v7.766h-1.256V4.762L7.678 8.068 5.24 4.742v5.407z" transform="translate(752, 817.9998779296875)" fill="#80808088" stroke="none"></path></svg>