<?xml version="1.0" encoding="utf-8" standalone="yes"?>
<!DOCTYPE svg PUBLIC "-//W3C//DTD SVG 1.1//EN" "http://www.w3.org/Graphics/SVG/1.1/DTD/svg11.dtd">
<svg width="624" height="906" viewBox="0 0 624 906" style="fill:none;stroke:none;fill-rule:evenodd;clip-rule:evenodd;stroke-linecap:round;stroke-linejoin:round;stroke-miterlimit:1.5;" version="1.1" xmlns="http://www.w3.org/2000/svg" xmlns:xlink="http://www.w3.org/1999/xlink"><style class="text-font-style fontImports" data-font-family="Roboto">@import url('https://fonts.googleapis.com/css2?family=Roboto:wght@400;700&amp;display=block');</style><g id="items" style="isolation: isolate"><g id="blend" style="mix-blend-mode: normal"><g id="g-root-cp_4_g-4_940fyo5m8efc-fill" data-item-order="-465973" transform="translate(133.95700073242188, 704.7500610351562)"></g><g id="g-root-cp_3_g-3_1utnzkg5m8ft6-fill" data-item-order="-465970" transform="translate(255.05599975585938, 718.0000610351562)"><g id="cp_3_g-3_1utnzkg5m8ft6-fill" stroke="none" fill="url(#gradient-cbcbcb-248399021)"><g><path d="M 56.9441 10C 49.4718 10 43.1958 15.1224 41.4361 22.0473L 10.1339 124.1204C 9.5424 126.049 10.9848 128 13.002 128L 100.8862 128C 102.9035 128 104.3458 126.049 103.7544 124.1204L 72.454 22.0543C 70.6968 15.1259 64.4191 10 56.9441 10ZM 56.9443 33C 60.8103 33 63.9443 29.866 63.9443 26C 63.9443 22.134 60.8103 19 56.9443 19C 53.0783 19 49.9443 22.134 49.9443 26C 49.9443 29.866 53.0783 33 56.9443 33Z"></path></g></g></g><g id="g-root-cp_right-line_g-right-line_1d30g5s5m8f0k-fill" data-item-order="-465966" transform="translate(350, 668.0000610351562)"><g id="cp_right-line_g-right-line_1d30g5s5m8f0k-fill" stroke="none" fill="url(#gradient-bceb57-497517668)"><g><path d="M 11.0812 15.7294C 10.3384 14.9043 10 13.8259 10 12.7157C 10 11.2158 11.2158 10 12.7157 10L 235.2843 10C 236.7842 10 238 11.2158 238 12.7157C 238 13.8259 237.6617 14.9043 236.9188 15.7294C 231.5512 21.6916 204.7174 46 124 46C 43.2826 46 16.4488 21.6916 11.0812 15.7294Z"></path></g></g></g><g id="g-root-cp_left-line_g-left-line_qwjemo5m8e8e-fill" data-item-order="-465962" transform="translate(26, 668.0000610351562)"><defs><linearGradient id="gradient-cbcbcb-248399021" x2="0" y2="1"><stop offset="0" stop-color="#d9d9d9"></stop><stop offset="1" stop-color="#bcbcbc"></stop></linearGradient><linearGradient id="gradient-bceb57-497517668" x2="0" y2="1"><stop offset="0" stop-color="#cff976"></stop><stop offset="1" stop-color="#a8dd38"></stop></linearGradient><linearGradient id="gradient-4dd3ff-378786070" x2="0" y2="1"><stop offset="0" stop-color="#7fdfff"></stop><stop offset="1" stop-color="#1ac6ff"></stop></linearGradient></defs><g id="cp_left-line_g-left-line_qwjemo5m8e8e-fill" stroke="none" fill="url(#gradient-4dd3ff-378786070)"><g><path d="M 11.0812 15.7294C 10.3384 14.9043 10 13.8259 10 12.7157C 10 11.2158 11.2158 10 12.7157 10L 235.2843 10C 236.7842 10 238 11.2158 238 12.7157C 238 13.8259 237.6617 14.9043 236.9188 15.7294C 231.5512 21.6916 204.7174 46 124 46C 43.2826 46 16.4488 21.6916 11.0812 15.7294Z"></path></g></g></g><g id="g-root-tx_morecomp_qofbo05lue4t-fill" data-item-order="0" transform="translate(416, 146)"><g id="tx_morecomp_qofbo05lue4t-fill" stroke="none" fill="#92bd39"><g><text style="font: 20px &quot;Roboto&quot;, sans-serif; white-space: pre;" font-size="20px" font-family="'Roboto', sans-serif"><tspan x="12" y="34" dominant-baseline="ideographic">More Complex </tspan><tspan x="12" y="58" dominant-baseline="ideographic">Setup</tspan></text></g></g></g><g id="g-root-ic_work_1lrsbm85lopho-fill" data-item-order="0" transform="translate(32, 230)"></g><g id="g-root-tx_homeassi_1d2e28g5m0076-fill" data-item-order="0" transform="translate(386, 763.0000610351562)"><g id="tx_homeassi_1d2e28g5m0076-fill" stroke="none" fill="#92bd39"><g><text style="font: 20px &quot;Roboto&quot;, sans-serif; white-space: pre;" font-size="20px" font-family="'Roboto', sans-serif"><tspan x="16.67" y="34" dominant-baseline="ideographic">Home Assistant</tspan></text></g></g></g><g id="g-root-ic_pale_1uuajtc5lud4w-fill" data-item-order="0" transform="translate(356, 230)"></g><g id="g-root-tx_customiz_vb41qo5lubrj-fill" data-item-order="0" transform="translate(416, 230)"><g id="tx_customiz_vb41qo5lubrj-fill" stroke="none" fill="#92bd39"><g><text style="font: 20px &quot;Roboto&quot;, sans-serif; white-space: pre;" font-size="20px" font-family="'Roboto', sans-serif"><tspan x="12" y="34" dominant-baseline="ideographic">Customizable </tspan><tspan x="12" y="58" dominant-baseline="ideographic">Interface</tspan></text></g></g></g><g id="g-root-ic_mana_hu19lc5lq4ge-fill" data-item-order="0" transform="translate(32, 326)"></g><g id="g-root-tx_basicaut_1iaxc5lq4nh-fill" data-item-order="0" transform="translate(92, 314)"><g id="tx_basicaut_1iaxc5lq4nh-fill" stroke="none" fill="#1eabda"><g><text style="font: 20px &quot;Roboto&quot;, sans-serif; white-space: pre;" font-size="20px" font-family="'Roboto', sans-serif"><tspan x="12" y="34" dominant-baseline="ideographic">Basic </tspan><tspan x="12" y="58" dominant-baseline="ideographic">Automation </tspan><tspan x="12" y="82" dominant-baseline="ideographic">Features</tspan></text></g></g></g><g id="g-root-ic_vase_qqaqxc5lvqiy-fill" data-item-order="0" transform="translate(356, 326)"></g><g id="g-root-tx_advanced_v48tsg5lvri9-fill" data-item-order="0" transform="translate(416, 314)"><g id="tx_advanced_v48tsg5lvri9-fill" stroke="none" fill="#92bd39"><g><text style="font: 20px &quot;Roboto&quot;, sans-serif; white-space: pre;" font-size="20px" font-family="'Roboto', sans-serif"><tspan x="12" y="34" dominant-baseline="ideographic">Advanced </tspan><tspan x="12" y="58" dominant-baseline="ideographic">Automation </tspan><tspan x="12" y="82" dominant-baseline="ideographic">Options</tspan></text></g></g></g><g id="g-root-ic_fing_dfgpn45lrksg-fill" data-item-order="0" transform="translate(32, 422)"></g><g id="g-root-tx_manualup_2r93k5lrk7b-fill" data-item-order="0" transform="translate(92, 422)"><g id="tx_manualup_2r93k5lrk7b-fill" stroke="none" fill="#1eabda"><g><text style="font: 20px &quot;Roboto&quot;, sans-serif; white-space: pre;" font-size="20px" font-family="'Roboto', sans-serif"><tspan x="12" y="34" dominant-baseline="ideographic">Manual Update </tspan><tspan x="12" y="58" dominant-baseline="ideographic">Process</tspan></text></g></g></g><g id="g-root-ic_cloc_hxs4405lx5vo-fill" data-item-order="0" transform="translate(356, 422)"></g><g id="g-root-tx_automati_1hdu8r45lx62r-fill" data-item-order="0" transform="translate(416, 422)"><g id="tx_automati_1hdu8r45lx62r-fill" stroke="none" fill="#92bd39"><g><text style="font: 20px &quot;Roboto&quot;, sans-serif; white-space: pre;" font-size="20px" font-family="'Roboto', sans-serif"><tspan x="12" y="34" dominant-baseline="ideographic">Automatic </tspan><tspan x="12" y="58" dominant-baseline="ideographic">Updates</tspan></text></g></g></g><g id="g-root-ic_acce_v7zob45lsxz6-fill" data-item-order="0" transform="translate(32, 506)"></g><g id="g-root-tx_limitedb_4jtpe85lsyyx-fill" data-item-order="0" transform="translate(92, 506)"><g id="tx_limitedb_4jtpe85lsyyx-fill" stroke="none" fill="#1eabda"><g><text style="font: 20px &quot;Roboto&quot;, sans-serif; white-space: pre;" font-size="20px" font-family="'Roboto', sans-serif"><tspan x="12" y="34" dominant-baseline="ideographic">Limited Backup </tspan><tspan x="12" y="58" dominant-baseline="ideographic">Solutions</tspan></text></g></g></g><g id="g-root-ic_safe_1hi7kcw5lym12-fill" data-item-order="0" transform="translate(356, 506)"></g><g id="g-root-tx_comprehe_145i3tc5lylfx-fill" data-item-order="0" transform="translate(416, 506)"><g id="tx_comprehe_145i3tc5lylfx-fill" stroke="none" fill="#92bd39"><g><text style="font: 20px &quot;Roboto&quot;, sans-serif; white-space: pre;" font-size="20px" font-family="'Roboto', sans-serif"><tspan x="12" y="34" dominant-baseline="ideographic">Comprehensive </tspan><tspan x="12" y="58" dominant-baseline="ideographic">Backup Options</tspan></text></g></g></g><g id="g-root-ic_app_18ly30w5lszyk-fill" data-item-order="0" transform="translate(32, 590)"></g><g id="g-root-tx_basicmob_92rky85lszcz-fill" data-item-order="0" transform="translate(92, 590)"><g id="tx_basicmob_92rky85lszcz-fill" stroke="none" fill="#1eabda"><g><text style="font: 20px &quot;Roboto&quot;, sans-serif; white-space: pre;" font-size="20px" font-family="'Roboto', sans-serif"><tspan x="12" y="34" dominant-baseline="ideographic">Basic Mobile </tspan><tspan x="12" y="58" dominant-baseline="ideographic">App</tspan></text></g></g></g><g id="g-root-ic_smar_1q8urww5lzz7k-fill" data-item-order="0" transform="translate(356, 590)"></g><g id="g-root-tx_featurer_zkot005m007b-fill" data-item-order="0" transform="translate(416, 590)"><g id="tx_featurer_zkot005m007b-fill" stroke="none" fill="#92bd39"><g><text style="font: 20px &quot;Roboto&quot;, sans-serif; white-space: pre;" font-size="20px" font-family="'Roboto', sans-serif"><tspan x="12" y="34" dominant-baseline="ideographic">Feature-Rich </tspan><tspan x="12" y="58" dominant-baseline="ideographic">Mobile App</tspan></text></g></g></g><g id="g-root-ic_fork_1414s7k5luepy-fill" data-item-order="0" transform="translate(356, 146)"></g><g id="g-root-tx_easierin_qnsukw5lndvt-fill" data-item-order="0" transform="translate(92, 122)"><g id="tx_easierin_qnsukw5lndvt-fill" stroke="none" fill="#1eabda"><g><text style="font: 20px &quot;Roboto&quot;, sans-serif; white-space: pre;" font-size="20px" font-family="'Roboto', sans-serif"><tspan x="12" y="34" dominant-baseline="ideographic">Easier </tspan><tspan x="12" y="58" dominant-baseline="ideographic">Installation </tspan><tspan x="12" y="82" dominant-baseline="ideographic">Process</tspan></text></g></g></g><g id="g-root-ic_bird_1hbyths5lncw2-fill" data-item-order="0" transform="translate(32, 134)"></g><g id="g-root-tx_compares_4g2uvk5lnbpc-fill" data-item-order="0" transform="translate(44, 38)"><g id="tx_compares_4g2uvk5lnbpc-fill" stroke="none" fill="#484848"><g><text style="font: bold 25px &quot;Roboto&quot;, sans-serif; white-space: pre;" font-weight="bold" font-size="25px" font-family="'Roboto', sans-serif"><tspan x="11.9" y="40.25" dominant-baseline="ideographic">Compare smart home platforms for informed </tspan><tspan x="217.72" y="70.25" dominant-baseline="ideographic">choices.</tspan></text></g></g></g><g id="g-root-tx_domoticz_v9v3kg5m00e9-fill" data-item-order="0" transform="translate(92, 763.0000610351562)"><g id="tx_domoticz_v9v3kg5m00e9-fill" stroke="none" fill="#1eabda"><g><text style="font: 20px &quot;Roboto&quot;, sans-serif; white-space: pre;" font-size="20px" font-family="'Roboto', sans-serif"><tspan x="15.37" y="34" dominant-baseline="ideographic">Domoticz</tspan></text></g></g></g><g id="g-root-tx_simpleru_qnsukw5lor9n-fill" data-item-order="0" transform="translate(92, 230)"><g id="tx_simpleru_qnsukw5lor9n-fill" stroke="none" fill="#1eabda"><g><text style="font: 20px &quot;Roboto&quot;, sans-serif; white-space: pre;" font-size="20px" font-family="'Roboto', sans-serif"><tspan x="12" y="34" dominant-baseline="ideographic">Simpler User </tspan><tspan x="12" y="58" dominant-baseline="ideographic">Interface</tspan></text></g></g></g><g id="g-root-cp_4_g-4_940fyo5m8efc-stroke" data-item-order="-465973" transform="translate(133.95700073242188, 704.7500610351562)"><g id="cp_4_g-4_940fyo5m8efc-stroke" fill="none" stroke-linecap="round" stroke-linejoin="round" stroke-miterlimit="4" stroke="#484848" stroke-width="2"><g><path d="M 346.042969 39.249565C 346.042969 42.563265 343.356669 45.249565 340.042969 45.249565C 336.729269 45.249565 334.042969 42.563265 334.042969 39.249565C 334.042969 35.935865 336.729269 33.249565 340.042969 33.249565C 343.356669 33.249565 346.042969 35.935865 346.042969 39.249565ZM 22.0432 39.249565C 22.0432 42.563265 19.3473 45.249565 16.0216 45.249565C 12.696 45.249565 10 42.563265 10 39.249565C 10 35.935865 12.696 33.249565 16.0216 33.249565C 19.3473 33.249565 22.0432 35.935865 22.0432 39.249565ZM 340.042969 33.249553L 340.042969 10.000053M 16.042969 10.249565L 16.042969 33.249565M 334.057869 39.274956L 195.042969 39.274956M 161.042969 39.275056L 22.042969 39.274956"></path></g></g></g><g id="g-root-cp_3_g-3_1utnzkg5m8ft6-stroke" data-item-order="-465970" transform="translate(255.05599975585938, 718.0000610351562)"><g id="cp_3_g-3_1utnzkg5m8ft6-stroke" fill="none" stroke-linecap="round" stroke-linejoin="round" stroke-miterlimit="4" stroke="#484848" stroke-width="2"><g><path d="M 56.9441 10C 49.4718 10 43.1958 15.1224 41.4361 22.0473L 10.1339 124.1204C 9.5424 126.049 10.9848 128 13.002 128L 100.8862 128C 102.9035 128 104.3458 126.049 103.7544 124.1204L 72.454 22.0543C 70.6968 15.1259 64.4191 10 56.9441 10ZM 56.9443 33C 60.8103 33 63.9443 29.866 63.9443 26C 63.9443 22.134 60.8103 19 56.9443 19C 53.0783 19 49.9443 22.134 49.9443 26C 49.9443 29.866 53.0783 33 56.9443 33Z"></path></g></g></g><g id="g-root-cp_right-line_g-right-line_1d30g5s5m8f0k-stroke" data-item-order="-465966" transform="translate(350, 668.0000610351562)"><g id="cp_right-line_g-right-line_1d30g5s5m8f0k-stroke" fill="none" stroke-linecap="round" stroke-linejoin="round" stroke-miterlimit="4" stroke="#484848" stroke-width="2"><g><path d="M 11.0812 15.7294C 10.3384 14.9043 10 13.8259 10 12.7157C 10 11.2158 11.2158 10 12.7157 10L 235.2843 10C 236.7842 10 238 11.2158 238 12.7157C 238 13.8259 237.6617 14.9043 236.9188 15.7294C 231.5512 21.6916 204.7174 46 124 46C 43.2826 46 16.4488 21.6916 11.0812 15.7294Z"></path></g></g></g><g id="g-root-cp_left-line_g-left-line_qwjemo5m8e8e-stroke" data-item-order="-465962" transform="translate(26, 668.0000610351562)"><g id="cp_left-line_g-left-line_qwjemo5m8e8e-stroke" fill="none" stroke-linecap="round" stroke-linejoin="round" stroke-miterlimit="4" stroke="#484848" stroke-width="2"><g><path d="M 11.0812 15.7294C 10.3384 14.9043 10 13.8259 10 12.7157C 10 11.2158 11.2158 10 12.7157 10L 235.2843 10C 236.7842 10 238 11.2158 238 12.7157C 238 13.8259 237.6617 14.9043 236.9188 15.7294C 231.5512 21.6916 204.7174 46 124 46C 43.2826 46 16.4488 21.6916 11.0812 15.7294Z"></path></g></g></g><g id="g-root-tx_morecomp_qofbo05lue4t-stroke" data-item-order="0" transform="translate(416, 146)"></g><g id="g-root-ic_work_1lrsbm85lopho-stroke" data-item-order="0" transform="translate(32, 230)"><g id="ic_work_1lrsbm85lopho-stroke" fill="none" stroke-linecap="round" stroke-linejoin="round" stroke-miterlimit="4" stroke="#484848" stroke-width="2"><g><path d="M 38.5 32.5L 38.5 50.444401C 38.5 51.077801 38.900002 51.5 39.5 51.5L 56.4688 51.5M 56.5 56.499802L 56.5 33.5C 56.5 32.900002 56.099998 32.5 55.5 32.5L 12.5 32.5C 11.9 32.5 11.5 32.900002 11.5 33.5L 11.5 56.5M 11.5 40.5L 38.5 40.5M 32.5 26.5L 14.5 26.5C 12.9 26.5 11.5 25.1 11.5 23.5L 11.5 14.5C 11.5 12.9 12.9 11.5 14.5 11.5L 32.5 11.5C 34.099998 11.5 35.5 12.9 35.5 14.5L 35.5 23.5C 35.5 25.299999 34.099998 26.5 32.5 26.5ZM 23.5 26.5L 23.5 32.5M 46.900002 38.5L 48.0998 38.5M 46.900002 45.5L 48.0998 45.5M 54 26.699961L 43 26.699961M 54 20.699959L 43 20.699959"></path></g></g></g><g id="g-root-tx_homeassi_1d2e28g5m0076-stroke" data-item-order="0" transform="translate(386, 763.0000610351562)"></g><g id="g-root-ic_pale_1uuajtc5lud4w-stroke" data-item-order="0" transform="translate(356, 230)"><g id="ic_pale_1uuajtc5lud4w-stroke" fill="none" stroke-linecap="round" stroke-linejoin="round" stroke-miterlimit="4" stroke="#484848" stroke-width="2"><g><path d="M 17.74 52C 8.755134 43.018951 8.753071 28.45438 17.735394 19.470787C 26.717714 10.487191 41.282288 10.487191 50.264606 19.470787C 59.246929 28.45438 59.244869 43.018951 50.260002 52C 45.963818 56.298203 38.996185 56.298203 34.700001 52L 26.219999 43.540001C 25.426479 42.860447 24.24361 42.906136 23.504873 43.644875C 22.766136 44.38361 22.720448 45.566479 23.4 46.360001C 24.829235 47.942898 24.765251 50.368725 23.254559 51.874077C 21.743868 53.379433 19.317829 53.43483 17.74 52ZM 45.48 25.860001C 45.48 27.516855 44.136856 28.860001 42.48 28.860001C 40.823147 28.860001 39.480003 27.516855 39.480003 25.860001C 39.480003 24.203146 40.823147 22.860001 42.48 22.860001C 44.136856 22.860001 45.48 24.203146 45.48 25.860001ZM 46 35.760002C 46 36.864571 46.895432 37.760002 48 37.760002C 49.104568 37.760002 50 36.864571 50 35.760002C 50 34.65543 49.104568 33.760002 48 33.760002C 46.895432 33.760002 46 34.65543 46 35.760002M 42.48 49.66C 40.270859 49.66 38.48 47.869141 38.48 45.66C 38.48 43.450863 40.270859 41.66 42.48 41.66C 44.68914 41.66 46.48 43.450863 46.48 45.66C 46.48 47.869141 44.68914 49.66 42.48 49.66ZM 30.459999 20.74C 32.116856 20.740002 33.459999 22.083145 33.459999 23.740002C 33.459999 25.396854 32.116856 26.74 30.460001 26.74C 28.803146 26.74 27.460001 25.396854 27.460001 23.740002C 27.460001 22.083145 28.803146 20.740002 30.460001 20.740002Z"></path></g></g></g><g id="g-root-tx_customiz_vb41qo5lubrj-stroke" data-item-order="0" transform="translate(416, 230)"></g><g id="g-root-ic_mana_hu19lc5lq4ge-stroke" data-item-order="0" transform="translate(32, 326)"><g id="ic_mana_hu19lc5lq4ge-stroke" fill="none" stroke-linecap="round" stroke-linejoin="round" stroke-miterlimit="4" stroke="#484848" stroke-width="2"><g><path d="M 12 34L 16 34M 24 34L 34 34M 42 34L 56 34M 51.953999 30L 56 34L 51.953999 38M 16 34C 16 36.209137 17.790861 38 20 38C 22.209139 38 24 36.209137 24 34C 24 31.790861 22.209139 30 20 30C 17.790861 30 16 31.790861 16 34M 34 34C 34 36.209137 35.790863 38 38 38C 40.209137 38 42 36.209137 42 34C 42 31.790861 40.209137 30 38 30C 35.790863 30 34 31.790861 34 34M 38 30L 38 23M 20 45L 20 38M 32 11L 44 11C 44 11 46 11 46 13L 46 21C 46 21 46 23 44 23L 32 23C 32 23 30 23 30 21L 30 13C 30 13 30 11 32 11M 14 45L 26 45C 26 45 28 45 28 47L 28 55C 28 55 28 57 26 57L 14 57C 14 57 12 57 12 55L 12 47C 12 47 12 45 14 45"></path></g></g></g><g id="g-root-tx_basicaut_1iaxc5lq4nh-stroke" data-item-order="0" transform="translate(92, 314)"></g><g id="g-root-ic_vase_qqaqxc5lvqiy-stroke" data-item-order="0" transform="translate(356, 326)"><g id="ic_vase_qqaqxc5lvqiy-stroke" fill="none" stroke-linecap="round" stroke-linejoin="round" stroke-miterlimit="4" stroke="#484848" stroke-width="2"><g><path d="M 29.388 39C 29.047298 38.999886 28.729979 39.173241 28.546 39.459999C 26.62134 42.094471 25.417664 45.185696 25.053999 48.427998C 25.054001 54.110001 28.188 57 32.054001 57C 35.919998 57 39.054001 54.110001 39.054001 48.428001C 38.68956 45.185551 37.485207 42.094357 35.559998 39.459999C 35.376022 39.173241 35.058701 38.999886 34.718002 39ZM 32.052002 35.998001L 25.908001 16.875999M 22.054001 14C 22.054001 15.656855 23.397146 17 25.054001 17C 26.710855 17 28.054001 15.656855 28.054001 14C 28.054001 12.343145 26.710855 11 25.054001 11C 23.397146 11 22.054001 12.343145 22.054001 14ZM 10.946 20C 10.946 21.656855 12.289146 23 13.946 23C 15.602854 23 16.945999 21.656855 16.945999 20C 16.945999 18.343147 15.602854 17 13.946 17C 12.289146 17 10.946 18.343147 10.946 20ZM 13.946 36C 13.946 37.656853 15.289146 39 16.945999 39C 18.602856 39 19.945999 37.656853 19.945999 36C 19.945999 34.343147 18.602856 33 16.945999 33C 15.289146 33 13.946 34.343147 13.946 36ZM 32.054001 18C 32.054001 19.656855 33.397148 21 35.054001 21C 36.710854 21 38.054001 19.656855 38.054001 18C 38.054001 16.343145 36.710854 15 35.054001 15C 33.397148 15 32.054001 16.343145 32.054001 18ZM 43.945999 15C 43.946003 16.656855 45.289146 18 46.946003 18C 48.602856 18 49.946003 16.656855 49.946003 15C 49.946003 13.343145 48.602856 12 46.946003 12C 45.289146 12 43.946003 13.343145 43.946003 15ZM 51.054001 26C 51.054001 27.656855 52.397148 29 54.054001 29C 55.710857 29 57.054001 27.656855 57.054001 26C 57.054001 24.343147 55.710857 23 54.054001 23C 52.397148 23 51.054001 24.343147 51.054001 26ZM 41.945999 34C 41.945999 35.656853 43.289146 37 44.945999 37C 46.602856 37 47.945999 35.656853 47.945999 34C 47.945999 32.343147 46.602856 31 44.945999 31C 43.289146 31 41.945999 32.343147 41.945999 34ZM 30.445999 31L 25.889999 31C 24.697754 30.99971 23.537624 31.386421 22.584 32.101997L 19.496 34.417999M 16.948 20L 18.054001 20C 19.677578 19.995045 21.25811 20.521891 22.554001 21.5C 23.514027 22.460232 24.81617 22.999794 26.174 23L 27.875999 23M 29.129999 26.906L 34.208 20.813999M 32.054001 36L 45.374001 17.556M 41.655998 22.702L 44.584 24.902C 45.538124 25.61615 46.698208 26.001442 47.889999 26L 51.051998 26M 37.416 28.576L 42.652 32.066002"></path></g></g></g><g id="g-root-tx_advanced_v48tsg5lvri9-stroke" data-item-order="0" transform="translate(416, 314)"></g><g id="g-root-ic_fing_dfgpn45lrksg-stroke" data-item-order="0" transform="translate(32, 422)"><g id="ic_fing_dfgpn45lrksg-stroke" fill="none" stroke-linecap="round" stroke-linejoin="round" stroke-miterlimit="4" stroke="#484848" stroke-width="2"><g><path d="M 34 50.259998C 32.841949 50.97541 31.825092 51.897362 31 52.98L 31 20C 31 20 26.879999 13.62 13.12 13.02C 12.569099 12.986885 12.029001 13.182888 11.627556 13.561609C 11.22611 13.940331 10.999005 14.468105 11 15.02L 11 44.099998C 10.998092 45.159355 11.822552 46.036442 12.88 46.099998C 26.879999 46.639999 31 53 31 53M 31 20C 31 20 35.120003 13.72 48.880001 13.12C 49.430901 13.086885 49.971001 13.282887 50.372444 13.66161C 50.773888 14.040331 51.000996 14.568106 51 15.12L 51 40M 17.5 23.48C 17.510941 23.20673 17.739407 22.992954 18.012802 23.000175C 18.286198 23.007397 18.503059 23.232933 18.499557 23.506401C 18.496058 23.779869 18.273491 23.999781 18 24C 17.723858 24 17.5 23.776142 17.5 23.5M 24 23.48C 24.010941 23.20673 24.239407 22.992954 24.512802 23.000175C 24.786198 23.007397 25.003059 23.232933 24.999557 23.506401C 24.996058 23.779869 24.773491 23.999781 24.5 24C 24.363853 24.000109 24.233547 23.944695 24.139183 23.846554C 24.044819 23.748415 23.994555 23.616039 24 23.48M 37.5 23.48C 37.510941 23.20673 37.739407 22.992954 38.012802 23.000175C 38.286194 23.007397 38.503059 23.232933 38.499557 23.506401C 38.496056 23.779869 38.273491 23.999781 38 24C 37.723858 24 37.5 23.776142 37.5 23.5M 43.5 23.48C 43.510941 23.20673 43.739407 22.992954 44.012802 23.000175C 44.286198 23.007397 44.503059 23.232933 44.499557 23.506401C 44.496056 23.779869 44.273491 23.999781 44 24C 43.723858 24 43.5 23.776142 43.5 23.5M 43.5 30C 43.5 29.723858 43.723858 29.5 44 29.5C 44.276142 29.5 44.5 29.723858 44.5 30C 44.5 30.276142 44.276142 30.5 44 30.5C 43.723858 30.5 43.5 30.276142 43.5 30M 17.5 30.48C 17.5 30.203857 17.723858 29.98 18 29.98C 18.276142 29.98 18.5 30.203857 18.5 30.48C 18.5 30.756142 18.276142 30.98 18 30.98C 17.723858 30.98 17.5 30.756142 17.5 30.48M 24 30.48C 24 30.203857 24.223858 29.98 24.5 29.98C 24.776142 29.98 25 30.203857 25 30.48C 25 30.756142 24.776142 30.98 24.5 30.98C 24.223858 30.98 24 30.756142 24 30.48M 17.5 37.48C 17.510941 37.20673 17.739407 36.99295 18.012802 37.000175C 18.286198 37.007397 18.503059 37.232933 18.499557 37.506401C 18.496058 37.779869 18.273491 37.999779 18 38C 17.723858 38 17.5 37.776142 17.5 37.5M 42.580002 54.98L 37.459999 49.279999C 36.895889 48.428539 37.06398 47.288826 37.849884 46.636475C 38.635788 45.984123 39.786964 46.028759 40.52 46.740002L 43 49.400002L 43 38.279999C 43 37.17543 43.895432 36.279999 45 36.279999C 46.104568 36.279999 47 37.17543 47 38.279999L 47 44.98L 51.700001 44.98C 54.638157 44.98 57.02 47.361847 57.02 50.299999L 57.02 54.98"></path></g></g></g><g id="g-root-tx_manualup_2r93k5lrk7b-stroke" data-item-order="0" transform="translate(92, 422)"></g><g id="g-root-ic_cloc_hxs4405lx5vo-stroke" data-item-order="0" transform="translate(356, 422)"><g id="ic_cloc_hxs4405lx5vo-stroke" fill="none" stroke-linecap="round" stroke-linejoin="round" stroke-miterlimit="4" stroke="#484848" stroke-width="2"><g><path d="M 41.835999 43.352001C 41.835705 45.026737 43.193264 46.384533 44.868 46.384533C 46.542736 46.384533 47.900295 45.026737 47.900002 43.352001C 47.900295 41.677265 46.542736 40.319466 44.868 40.319466C 43.193264 40.319466 41.835705 41.677265 41.835999 43.352001M 47.444 31.618L 48.338001 34.556C 48.64032 35.570786 49.681187 36.17408 50.712002 35.931999L 53.688 35.242001C 54.846245 34.981133 56.039349 35.50515 56.630913 36.534534C 57.222477 37.563919 57.074535 38.858601 56.265999 39.728001L 54.181999 41.973999C 53.462158 42.750885 53.462158 43.951115 54.181999 44.728001L 56.265999 46.976002C 57.075802 47.844814 57.224419 49.140121 56.632442 50.169769C 56.040462 51.199413 54.846275 51.722698 53.688004 51.460003L 50.712002 50.77C 49.680599 50.528091 48.639481 51.132412 48.338001 52.147999L 47.444 55.084C 47.102047 56.220905 46.055218 56.999199 44.868004 56.999199C 43.680786 56.999199 42.633957 56.220905 42.292004 55.084003L 41.400002 52.147999C 41.098518 51.132412 40.057404 50.528091 39.026001 50.77L 36.049999 51.459999C 34.892086 51.721451 33.698967 51.197712 33.107643 50.168407C 32.516323 49.139107 32.664879 47.844593 33.473999 46.976002L 35.556 44.728001C 36.275841 43.951115 36.275841 42.750885 35.556 41.973999L 33.473999 39.728001C 32.663025 38.859653 32.513355 37.563873 33.105019 36.533512C 33.696686 35.503151 34.891258 34.979279 36.050003 35.242001L 39.026001 35.931999C 40.056816 36.17408 41.097679 35.570786 41.400002 34.556L 42.293999 31.618C 42.637051 30.482767 43.683067 29.706123 44.869003 29.706123C 46.054935 29.706123 47.100952 30.482767 47.444004 31.618002ZM 27.073999 51.014C 17.286213 48.962051 10.468275 40.063789 11.033554 30.079214C 11.598832 20.094637 19.377537 12.022768 29.334379 11.088661C 39.291222 10.154555 48.435516 16.638784 50.848 26.344M 30.426001 20.098L 30.426001 31.040001L 23.132 36.510002"></path></g></g></g><g id="g-root-tx_automati_1hdu8r45lx62r-stroke" data-item-order="0" transform="translate(416, 422)"></g><g id="g-root-ic_acce_v7zob45lsxz6-stroke" data-item-order="0" transform="translate(32, 506)"><g id="ic_acce_v7zob45lsxz6-stroke" fill="none" stroke-linecap="round" stroke-linejoin="round" stroke-miterlimit="4" stroke="#484848" stroke-width="2"><g><path d="M 33.82 23.5C 44.920799 23.5 53.919998 20.8137 53.919998 17.5C 53.919998 14.1863 44.920799 11.5 33.82 11.5C 22.71904 11.5 13.71998 14.1863 13.71998 17.5C 13.71998 20.8137 22.71904 23.5 33.82 23.5ZM 35.919998 55.5C 42.119999 55.099998 46.919998 53.099998 46.919998 50.5L 53.919998 17.5M 10 10M 13.71998 17.5L 15.71998 26.89996M 33.720001 34.5C 35.376801 34.5 36.720001 33.156799 36.720001 31.5C 36.720001 29.84314 35.376801 28.5 33.720001 28.5C 32.063202 28.5 30.719999 29.84314 30.719999 31.5C 30.719999 33.156799 32.063202 34.5 33.720001 34.5ZM 51.52 29.1001C 55.119999 31.700001 57.119999 34.100201 56.32 35.500198C 55.32 37.9002 46.568802 36.646599 36.568802 32.446602M 14.5 56.5L 26.5 56.5C 28.1 56.5 29.5 55.099998 29.5 53.5L 29.5 44.5C 29.5 42.900002 28.1 41.5 26.5 41.5L 14.5 41.5C 12.9 41.5 11.5 42.900002 11.5 44.5L 11.5 53.5C 11.5 55.099998 12.9 56.5 14.5 56.5ZM 20.5 32.5C 17.1 32.5 14.5 35.099998 14.5 38.5L 14.5 41.5L 26.5 41.5L 26.5 38.5C 26.5 35.099998 23.9 32.5 20.5 32.5ZM 20.499939 51.085602C 21.6518 51.085602 22.585579 50.151798 22.585579 49C 22.585579 47.848 21.6518 46.914398 20.499939 46.914398C 19.34808 46.914398 18.414299 47.848 18.414299 49C 18.414299 50.151798 19.34808 51.085602 20.499939 51.085602Z"></path></g></g></g><g id="g-root-tx_limitedb_4jtpe85lsyyx-stroke" data-item-order="0" transform="translate(92, 506)"></g><g id="g-root-ic_safe_1hi7kcw5lym12-stroke" data-item-order="0" transform="translate(356, 506)"><g id="ic_safe_1hi7kcw5lym12-stroke" fill="none" stroke-linecap="round" stroke-linejoin="round" stroke-miterlimit="4" stroke="#484848" stroke-width="2"><g><path d="M 15.007999 11L 53.007999 11C 53.007999 11 57.007999 11 57.007999 15L 57.007999 51C 57.007999 51 57.007999 55 53.007999 55L 15.007999 55C 15.007999 55 11.008 55 11.008 51L 11.008 15C 11.008 15 11.008 11 15.007999 11M 15.007999 55L 15.007999 57M 53.007999 55L 53.007999 57M 17 43L 17 45C 17 47.209141 18.790861 49 21 49L 47 49C 49.209141 49 51 47.209141 51 45L 51 21C 51 18.790861 49.209141 17 47 17L 21 17C 18.790861 17 17 18.790861 17 21L 17 23M 17.007999 29L 17.007999 37M 15.007999 23L 19.007999 23L 19.007999 29L 15.007999 29ZM 15.007999 37L 19.007999 37L 19.007999 43L 15.007999 43ZM 26.007999 33C 26.007999 37.970562 30.037437 42 35.007999 42C 39.978561 42 44.007999 37.970562 44.007999 33C 44.007999 28.029438 39.978561 24 35.007999 24C 30.037437 24 26.007999 28.029438 26.007999 33M 30.007999 33C 30.007999 35.761425 32.246574 38 35.007999 38C 37.769424 38 40.007999 35.761425 40.007999 33C 40.007999 30.238577 37.769424 28 35.007999 28C 32.246574 28 30.007999 30.238577 30.007999 33M 35.007999 24L 35.007999 28M 28.643999 26.636L 31.472 29.466M 26.007999 33L 30.007999 33M 28.643999 39.363998L 31.472 36.535999M 35.007999 42L 35.007999 38M 41.372002 39.365997L 38.543999 36.535999M 44.007999 33L 40.007999 33M 41.372002 26.636L 38.543999 29.466"></path></g></g></g><g id="g-root-tx_comprehe_145i3tc5lylfx-stroke" data-item-order="0" transform="translate(416, 506)"></g><g id="g-root-ic_app_18ly30w5lszyk-stroke" data-item-order="0" transform="translate(32, 590)"><g id="ic_app_18ly30w5lszyk-stroke" fill="none" stroke-linecap="round" stroke-linejoin="round" stroke-miterlimit="4" stroke="#484848" stroke-width="2"><g><path d="M 40.5 49L 11 49M 25.75 52.5C 26.026142 52.5 26.25 52.723858 26.25 53L 26.25 53C 26.25 53.276142 26.026142 53.5 25.75 53.5L 25.75 53.5C 25.473858 53.5 25.25 53.276142 25.25 53L 25.25 53C 25.25 52.723858 25.473858 52.5 25.75 52.5M 25.75 52.5L 25.75 52.5M 15 11L 36.5 11C 36.5 11 40.5 11 40.5 15L 40.5 53C 40.5 53 40.5 57 36.5 57L 15 57C 15 57 11 57 11 53L 11 15C 11 15 11 11 15 11M 45.054001 33.048C 46.140015 31.898626 46.140015 30.101376 45.054001 28.952002M 49 37.143997C 52.26004 33.696674 52.26004 28.303328 49.000004 24.856001M 49 37.143997C 52.26004 33.696674 52.26004 28.303328 49.000004 24.856001M 52.924 41.239998C 58.358067 35.49472 58.358067 26.50528 52.924 20.76M 52.924 41.239998C 58.358067 35.49472 58.358067 26.50528 52.924 20.76M 18 20L 22 20C 22 20 24 20 24 22L 24 26C 24 26 24 28 22 28L 18 28C 18 28 16 28 16 26L 16 22C 16 22 16 20 18 20M 30 20L 34 20C 34 20 36 20 36 22L 36 26C 36 26 36 28 34 28L 30 28C 30 28 28 28 28 26L 28 22C 28 22 28 20 30 20M 18 32L 22 32C 22 32 24 32 24 34L 24 38C 24 38 24 40 22 40L 18 40C 18 40 16 40 16 38L 16 34C 16 34 16 32 18 32M 30 32L 34 32C 34 32 36 32 36 34L 36 38C 36 38 36 40 34 40L 30 40C 30 40 28 40 28 38L 28 34C 28 34 28 32 30 32"></path></g></g></g><g id="g-root-tx_basicmob_92rky85lszcz-stroke" data-item-order="0" transform="translate(92, 590)"></g><g id="g-root-ic_smar_1q8urww5lzz7k-stroke" data-item-order="0" transform="translate(356, 590)"><g id="ic_smar_1q8urww5lzz7k-stroke" fill="none" stroke-linecap="round" stroke-linejoin="round" stroke-miterlimit="4" stroke="#484848" stroke-width="2"><g><path d="M 47.334 49L 21.334 49M 34.334 53.5L 34.334 53.5M 34.834 53C 34.834 53.276142 34.610142 53.5 34.334 53.5M 34.834 53L 34.834 53M 34.334 52.5C 34.610142 52.5 34.834 52.723858 34.834 53M 34.334 52.5L 34.334 52.5M 33.834 53C 33.833466 52.867226 33.885971 52.739738 33.979858 52.645855C 34.073738 52.551971 34.201225 52.499466 34.334 52.5M 33.834 53L 33.834 53M 34.334 53.5C 34.201225 53.500534 34.073738 53.448025 33.979858 53.354141C 33.885971 53.260258 33.833466 53.132771 33.834 53M 25.334 11L 43.334 11C 43.334 11 47.334 11 47.334 15L 47.334 53C 47.334 53 47.334 57 43.334 57L 25.334 57C 25.334 57 21.334 57 21.334 53L 21.334 15C 21.334 15 21.334 11 25.334 11M 27.334 17L 27.334 19M 25.334 21C 25.334 22.104568 26.229431 23 27.334 23C 28.43857 23 29.334 22.104568 29.334 21C 29.334 19.895432 28.43857 19 27.334 19C 26.229431 19 25.334 19.895432 25.334 21M 25.334 31C 25.334 32.104568 26.229431 33 27.334 33C 28.43857 33 29.334 32.104568 29.334 31C 29.334 29.89543 28.43857 29 27.334 29C 26.229431 29 25.334 29.89543 25.334 31M 25.334 41C 25.334 42.104568 26.229431 43 27.334 43C 28.43857 43 29.334 42.104568 29.334 41C 29.334 39.895432 28.43857 39 27.334 39C 26.229431 39 25.334 39.895432 25.334 41M 27.334 23L 27.334 29M 27.334 33L 27.334 39M 27.334 43L 27.334 45M 33.334 21L 43.334 21M 33.334 31L 41.334 31M 33.334 41L 43.334 41"></path></g></g></g><g id="g-root-tx_featurer_zkot005m007b-stroke" data-item-order="0" transform="translate(416, 590)"></g><g id="g-root-ic_fork_1414s7k5luepy-stroke" data-item-order="0" transform="translate(356, 146)"><g id="ic_fork_1414s7k5luepy-stroke" fill="none" stroke-linecap="round" stroke-linejoin="round" stroke-miterlimit="4" stroke="#484848" stroke-width="2"><g><path d="M 11 26L 21.360001 26C 22.787598 26.001465 24.106201 26.763664 24.82 28C 26.318102 30.52931 29.060877 32.05732 32 32L 32 14C 29.060877 13.94268 26.318102 15.470689 24.82 18C 24.106201 19.236336 22.787598 19.998535 21.360001 20L 11 20M 53 14L 57 14M 32 14L 38 14M 53 20L 57 20M 32 20L 38 20M 53 26L 57 26M 32 26L 38 26M 53 32L 57 32M 32 32L 38 32M 40.5 35C 39.119289 35 38 33.880714 38 32.5L 38 13.5C 38 12.119288 39.119289 11 40.5 11C 41.880714 11 43 12.119288 43 13.5L 43 32.5C 43 33.880714 41.880714 35 40.5 35ZM 45.5 35C 44.119289 35 43 33.880714 43 32.5L 43 13.5C 43 12.119288 44.119289 11 45.5 11C 46.880711 11 48 12.119288 48 13.5L 48 32.5C 48 33.880714 46.880711 35 45.5 35ZM 50.5 35C 49.119289 35 48 33.880714 48 32.5L 48 13.5C 48 12.119288 49.119289 11 50.5 11C 51.880711 11 53 12.119288 53 13.5L 53 32.5C 53 33.880714 51.880711 35 50.5 35ZM 44 34.5L 44 38.5C 43.989006 43.189857 40.189857 46.989006 35.5 47L 33.5 47C 31.571547 47.010925 30.010925 48.571548 30 50.5L 30 54.5C 30 55.880714 28.880713 57 27.5 57C 26.119287 57 25 55.880714 25 54.5L 25 50.5C 25.010998 45.810143 28.810143 42.010998 33.5 42L 35.5 42C 37.238293 41.997963 38.711678 40.720467 38.959999 39"></path></g></g></g><g id="g-root-tx_easierin_qnsukw5lndvt-stroke" data-item-order="0" transform="translate(92, 122)"></g><g id="g-root-ic_bird_1hbyths5lncw2-stroke" data-item-order="0" transform="translate(32, 134)"><g id="ic_bird_1hbyths5lncw2-stroke" fill="none" stroke-linecap="round" stroke-linejoin="round" stroke-miterlimit="4" stroke="#484848" stroke-width="2"><g><path d="M 57 56.778C 52 57.818001 48.880001 52.818001 48.880001 52.818001L 48.880001 52.818001C 47.308853 55.317238 44.589237 56.862183 41.638 56.932003C 38.708015 56.790997 36.020248 55.263298 34.400002 52.818001L 34.400002 52.818001C 32.827568 55.315895 30.108742 56.860394 27.158001 56.931999C 24.230885 56.788498 21.546604 55.261093 19.927999 52.818001L 19.928001 52.818001C 19.928001 52.818001 15.906 57.902 11 56.860001M 57 46.924C 52 47.962002 48.880001 42.962002 48.880001 42.962002L 48.880001 42.962002C 47.308853 45.461235 44.589237 47.00618 41.638 47.076C 38.708015 46.934994 36.020248 45.407299 34.400002 42.961998L 34.400002 42.962002C 32.827568 45.459892 30.108742 47.004391 27.158001 47.076C 24.230885 46.932499 21.546604 45.405094 19.927999 42.961998L 19.928001 42.962002C 19.928001 42.962002 15.906 48.046001 11 47M 17 21.001999C 17 23.21114 18.790861 25.001999 21 25.001999C 23.209139 25.001999 25 23.21114 25 21.001999C 25 18.792862 23.209139 17.001999 21 17.001999C 18.790861 17.001999 17 18.792862 17 21.001999ZM 11 21.001999L 13 21.001999M 29 21.001999L 31 21.001999M 21 11.002L 21 13.002M 21 29.002001L 21 31.002001M 13.927999 13.93L 15.344 15.344M 26.656 26.658001L 28.072001 28.072001M 28.072001 13.93L 26.656 15.344M 15.344 26.658001L 13.927999 28.072001M 42 15L 44.251999 17.540001C 44.441784 17.753889 44.71405 17.876301 45 17.876301C 45.28595 17.876301 45.558216 17.753889 45.748001 17.540001L 48 15M 50 23L 52.251999 25.540001C 52.441784 25.753889 52.71405 25.876301 53 25.876301C 53.28595 25.876301 53.558216 25.753889 53.748001 25.540001L 56 23M 37 30L 39.251999 32.540001C 39.441784 32.753891 39.71405 32.876301 40 32.876301C 40.28595 32.876301 40.558216 32.753891 40.748001 32.540001L 43 30"></path></g></g></g><g id="g-root-tx_compares_4g2uvk5lnbpc-stroke" data-item-order="0" transform="translate(44, 38)"></g><g id="g-root-tx_domoticz_v9v3kg5m00e9-stroke" data-item-order="0" transform="translate(92, 763.0000610351562)"></g><g id="g-root-tx_simpleru_qnsukw5lor9n-stroke" data-item-order="0" transform="translate(92, 230)"></g></g></g><path id="w1cxdh3k6g30nc" d="M65.283 12.757a.35.35 0 0 0 .584.157l5.203-5.141-6.183 3.523.396 1.461zm-2.216-11.7a.35.35 0 0 0-.522.305v3.111l3.276-1.868-2.754-1.548zm3.728 2.105l-4.25 2.421v2.445l6.391-3.644-2.141-1.222zm4.708 3.303a.35.35 0 0 0 0-.609l-1.592-.9-7.365 4.199v1.782a.35.35 0 0 0 .523.305l8.435-4.777z M44.542 2.513c0-.433.355-.783.792-.783s.792.35.792.783-.355.783-.792.783-.792-.35-.792-.783zm59.171 0c0-.433.355-.783.792-.783s.792.35.792.783-.355.783-.792.783-.792-.35-.792-.783zm-85.951 7.636h-1.27v-.487c-.276.201-.864.609-1.881.609-1.202 0-2.274-.794-2.137-2.078.118-1.106 1.153-1.584 1.848-1.727l2.17-.345c0-.539-.29-.956-1.064-1.006s-1.21.305-1.571 1.017l-1.124-.605c1.218-2.631 5.029-1.764 5.029.414v4.207zm-1.27-2.86c.006.396-.062 1.112-.819 1.59-.587.37-1.841.299-1.903-.395-.049-.555.461-.791.906-.898l1.816-.297zm72.662 2.86h-1.27v-.487c-.276.201-.864.609-1.881.609-1.202 0-2.274-.794-2.137-2.078.118-1.106 1.153-1.584 1.848-1.727l2.17-.345c0-.539-.29-.956-1.064-1.006s-1.21.305-1.571 1.017l-1.124-.605c1.218-2.631 5.029-1.764 5.029.414v4.207zm-1.27-2.86c.006.396-.062 1.112-.82 1.59-.587.37-1.841.299-1.903-.395-.049-.555.461-.791.906-.898l1.816-.297zM99.096 10.149H97.85v-8.45h1.246v4.895l2.68-2.559h1.738l-2.633 2.535 2.715 3.578h-1.556l-2.077-2.707-.867.844v1.863zm6.053-6.114h-1.255v6.113h1.255V4.035zm-59.2 0h-1.255v6.113h1.255V4.035zm5.584 6.113V1.697h1.255v2.695c.361-.346 1-.485 1.47-.485 1.452 0 2.477 1.082 2.457 2.448v3.792h-1.27v-3.68c0-.408-.214-1.339-1.315-1.339-.968 0-1.342.756-1.342 1.339v3.681h-1.255zm-4.76-4.894V4.039h.621a.45.45 0 0 0 .45-.45v-.855h1.251v1.305h1.309v1.215h-1.309v3.109c0 .293.105.664.648.664.365 0 .531-.035.736-.07v1.137s-.361.113-.857.113c-1.398 0-1.777-1.051-1.777-1.788V5.254h-1.071zM36.528 4.039h-1.394l2.191 6.106h1.125l1.234-3.918 1.238 3.918h1.129l2.188-6.106h-1.383l-1.359 3.93-1.256-3.93h-1.124l-1.242 3.957-1.348-3.957zM26.212 7.141c-.02 1.566 1.187 3.129 3.223 3.129 1.566 0 2.383-.918 2.734-1.719L31.172 8c-.315.399-.801 1.094-1.738 1.094-1.145 0-1.825-.781-1.891-1.52h4.625c.074-.284.148-.995-.03-1.559-.336-1.064-1.221-2.102-2.839-2.102s-3.088 1.152-3.088 3.227zm1.363-.75h3.348c-.055-.43-.566-1.301-1.623-1.301a1.79 1.79 0 0 0-1.725 1.301zm-8.758.75c.038 1.758 1.277 3.133 3.145 3.133 1.074 0 1.723-.477 1.961-.672v.547h1.242V1.703h-1.258v2.888c-.414-.36-1.062-.68-1.93-.68-1.91 0-3.198 1.473-3.16 3.23zm1.309-.08c0 1.119.723 1.978 1.836 1.978a1.88 1.88 0 0 0 1.94-1.904c0-1.371-1.011-1.99-1.972-1.99s-1.805.798-1.805 1.916zm76.683-.028C96.771 5.275 95.532 3.9 93.664 3.9c-1.074 0-1.723.477-1.961.672v-.547h-1.242v8.22h1.258V9.583c.414.36 1.063.68 1.93.68 1.91 0 3.198-1.473 3.16-3.23zm-1.309.08c0-1.119-.723-1.978-1.836-1.978a1.88 1.88 0 0 0-1.94 1.904c0 1.371 1.011 1.99 1.972 1.99S95.5 8.231 95.5 7.113zM106.441 10.173V4.036h1.254v.382c.361-.346 1-.485 1.47-.485 1.452 0 2.477 1.082 2.457 2.448v3.792h-1.27V6.492c0-.408-.214-1.339-1.315-1.339-.969 0-1.342.756-1.342 1.339v3.681h-1.254zm-30.383-.021V1.824h1.084l4.215 5.777V1.824h1.32v8.328h-1.094l-4.207-5.796v5.796h-1.319zM5.24 10.149H4V2.377h1.014l2.664 3.597 2.654-3.592h1.03v7.766h-1.256V4.762L7.678 8.068 5.24 4.742v5.407z" transform="translate(488, 871.0000610351562)" fill="#80808088" stroke="none"></path></svg>